<?xml version="1.0" encoding="UTF-8"?>
<svg id="Layer_2" data-name="Layer 2" xmlns="http://www.w3.org/2000/svg" viewBox="0 0 704.09 317.61">
  <defs>
    <style>
      .cls-1 {
        fill: #fff;
        stroke-width: 0px;
      }
    </style>
  </defs>
  <g id="Layer_1-2" data-name="Layer 1">
    <g>
      <path class="cls-1" d="m675.98,196.52c-26.33-1.48-50.45-.51-74.15,11.85-13.79,7.19-24.39,19.31-38.46,26.08-5.59,2.69-35.73,15.89-32.8,1.37,1.19-5.86,15.65-6.89,13.38-24.67-.06-.5-.2-1-.38-1.48l-45.65-118.5c-.76-2.52-.41-4.83,1.3-6.88,1.73-2.05,43.39-13.19,51.57-17.42.45-.23.92-.42,1.42-.54,29.88-7.5,61.35-5.5,90.54,3.88,4.44,1.42,28.82,11.37,30.16,13.73.33.58.55,1.79.64,3.13.2,2.9-1.63,5.53-4.37,6.49-5.4,1.88-10.66,4.19-15.63,7.02-7.11,4.05-24.71,18.14-29.51,28.96-1.45,3.27.12,7.1,3.42,8.5,25.01,10.62,54.3,25.39,70.88,46.86,17.84,23.09-10.58,12.28-22.38,11.62Z"/>
      <path class="cls-1" d="m503.29,201.54c-38.39-18.08-89.19,13.29-91.86,14.68-4.31,2.25-5.36,3.66-13.14,8.3-23.02,13.75-34.54,20.62-43.83,17.16-2.41-.9-10.52-4.64-14.75-22.54-.06-.27-.15-.55-.25-.81l-56.74-147.28c-.94-3.12-.51-5.99,1.62-8.52,2.16-2.57,54.92-16.65,64.22-21.75.34-.19.7-.33,1.06-.45,27.61-9.16,80.45-22,112.53,4.76,10.85,9.05,11.92,16.46,35.93,81.14,22.52,60.7,34.48,88.94,28.89,92.11-3.52,1.99-7.9-9.37-23.67-16.79Z"/>
      <path class="cls-1" d="m97.82,274.24c4.3,11.28,8.59,22.56,12.89,33.83,4.63,13.23,37.88,13.08,36.83-2.89l-11.92-30.94h-37.8Z"/>
      <path class="cls-1" d="m325.02,216.13L249.55,13.3c-.52-1.39-1.51-2.56-2.79-3.33-48-28.94-94.9,13.91-144.13,17.76-16.94,1.32-36.62,0-53.17-3.76-12.09-2.74-32.93-15.25-40.49-16.24-2.15-.28-4.22.61-4.22.61-.03,0-.06.01-.08.02C1.02,9.34-.92,13.36.43,16.9l100.27,263.17h37.08l-3.07-7.97c-.37-.96-1.42-3.17-1.31-4.19l.61-2.48c.35-3.23,3.84-6.77,7.09-6.84,18.73-.39,37.47-2.87,55.71-7.21,32.54-7.74,67.31-30.16,100.25-29.52,4.69.09,15.25,3.58,22.49,2.98,4.26-.36,6.98-4.71,5.49-8.71Z"/>
    </g>
  </g>
</svg>